<?xml version="1.0" standalone="no"?>
<!DOCTYPE svg PUBLIC "-//W3C//DTD SVG 20010904//EN"
 "http://www.w3.org/TR/2001/REC-SVG-20010904/DTD/svg10.dtd">
<svg version="1.0" xmlns="http://www.w3.org/2000/svg"
 width="1280.000000pt" height="1258.000000pt" viewBox="0 0 1280.000000 1258.000000"
 preserveAspectRatio="xMidYMid meet">
<metadata>
Created by potrace 1.15, written by Peter Selinger 2001-2017
</metadata>
<g transform="translate(0.000000,1258.000000) scale(0.100000,-0.100000)"
fill="#000000" stroke="none">
<path d="M655 12574 c-11 -2 -44 -9 -73 -15 -263 -53 -492 -280 -563 -560 -18
-70 -18 -268 0 -339 82 -323 355 -551 691 -576 l88 -7 946 -946 946 -946 -940
-940 c-517 -517 -940 -944 -940 -948 0 -5 5 -5 10 -2 6 3 101 37 213 75 111
38 454 154 762 258 308 104 587 199 620 211 56 20 76 38 293 254 l232 232
1075 -1075 1075 -1075 -2300 -2300 -2300 -2300 -30 -170 c-77 -447 -230 -1367
-230 -1383 0 -16 74 -6 786 114 l786 131 2299 2299 2299 2299 2303 -2301 2302
-2302 785 -131 c431 -71 785 -129 786 -128 1 1 -57 356 -130 790 l-131 787
-2300 2300 -2300 2300 1072 1072 1073 1073 232 -232 233 -233 150 -51 c83 -28
400 -135 705 -239 305 -103 616 -209 690 -234 l135 -46 -948 947 -947 948 947
946 948 947 87 6 c181 14 338 81 463 198 111 104 181 221 226 378 18 61 18
271 0 339 -72 280 -282 490 -562 562 -32 8 -103 14 -174 14 -97 0 -134 -5
-195 -24 -220 -68 -390 -215 -481 -417 -36 -78 -56 -163 -65 -269 l-6 -80
-947 -947 -946 -948 -942 942 c-519 519 -943 940 -943 937 0 -6 20 -64 359
-1069 l202 -595 234 -235 235 -235 -1073 -1073 -1072 -1072 -1075 1075 -1075
1075 232 232 233 233 39 115 c21 63 125 367 229 675 105 308 213 627 241 709
28 82 51 154 51 160 0 6 -424 -413 -943 -932 l-942 -942 -947 948 -946 947 -7
84 c-16 205 -81 348 -220 486 -144 144 -298 213 -495 220 -58 2 -114 2 -125
-1z"/>
</g>
</svg>
